<svg width="10" height="10" viewBox="0 0 10 10" fill="none" xmlns="http://www.w3.org/2000/svg">
<path d="M4.14149 5.85921C3.187 4.90472 2.97148 3.95023 2.92286 3.56781C2.90927 3.46207 2.94566 3.35603 3.02131 3.28091L3.79373 2.50883C3.90735 2.39528 3.92752 2.21831 3.84235 2.0821L2.61251 0.172428C2.51829 0.0216068 2.32482 -0.0328259 2.16578 0.0467366L0.191449 0.976574C0.0628376 1.0399 -0.0128102 1.17655 0.00179226 1.31916C0.105242 2.30193 0.533694 4.71782 2.90786 7.09215C5.28202 9.46649 7.69756 9.89477 8.68085 9.99822C8.82346 10.0128 8.96011 9.93717 9.02344 9.80856L9.95328 7.83423C10.0325 7.67553 9.97847 7.48259 9.82827 7.38819L7.9186 6.1587C7.78247 6.07344 7.60551 6.09346 7.49187 6.20697L6.71979 6.9794C6.64467 7.05504 6.53863 7.09143 6.43289 7.07784C6.05048 7.02922 5.09598 6.8137 4.14149 5.85921Z" fill="#D5444C"/>
<path d="M7.9317 5.34485C7.74125 5.34485 7.58687 5.19046 7.58687 5.00002C7.58525 3.57235 6.4283 2.4154 5.00063 2.41378C4.81019 2.41378 4.6558 2.2594 4.6558 2.06895C4.6558 1.87851 4.81019 1.72412 5.00063 1.72412C6.80903 1.72612 8.27454 3.19162 8.27653 5.00002C8.27653 5.19046 8.12214 5.34485 7.9317 5.34485Z" fill="#D5444C"/>
<path d="M9.65586 5.34488C9.46541 5.34488 9.31102 5.1905 9.31102 5.00005C9.30836 2.62059 7.38009 0.692323 5.00063 0.689662C4.81019 0.689662 4.6558 0.535276 4.6558 0.344831C4.6558 0.154386 4.81019 0 5.00063 0C7.76083 0.0030407 9.99765 2.23986 10.0007 5.00005C10.0007 5.09151 9.96436 5.17922 9.89969 5.24388C9.83502 5.30855 9.74731 5.34488 9.65586 5.34488Z" fill="#D5444C"/>
</svg>
