<svg width="16" height="15" viewBox="0 0 16 15" fill="none" xmlns="http://www.w3.org/2000/svg">
<path d="M3.50333 15C3.33184 15 3.16155 14.9465 3.01621 14.8414C2.74548 14.6452 2.61902 14.308 2.6927 13.9825L3.69966 9.54688L0.284693 6.55204C0.0336703 6.3329 -0.0622248 5.98586 0.0408356 5.66832C0.143896 5.35138 0.424297 5.12698 0.756287 5.09629L5.2747 4.68608L7.06112 0.505509C7.19284 0.198358 7.49283 0 7.82613 0C8.15944 0 8.45942 0.198358 8.59114 0.504793L10.3776 4.68608L14.8953 5.09629C15.228 5.12627 15.5084 5.35138 15.6114 5.66832C15.7145 5.98526 15.6192 6.3329 15.3682 6.55204L11.9532 9.54628L12.9602 13.9818C13.034 14.308 12.9074 14.6452 12.6368 14.8408C12.3668 15.0364 12.0067 15.0515 11.7224 14.8806L7.82613 12.5522L3.9299 14.8819C3.79818 14.9601 3.65141 15 3.50333 15ZM7.82613 11.5492C7.97421 11.5492 8.12086 11.589 8.2527 11.6672L11.9298 13.8665L10.9794 9.67991C10.9116 9.38196 11.0128 9.07086 11.243 8.86928L14.4675 6.04139L10.2014 5.65399C9.89427 5.62593 9.63011 5.43282 9.51009 5.14979L7.82613 1.2046L6.14015 5.15039C6.02144 5.43151 5.75728 5.62461 5.45085 5.65268L1.18417 6.04008L4.40854 8.86797C4.6395 9.07015 4.74053 9.38064 4.6721 9.67931L3.72247 13.8657L7.39956 11.6672C7.53128 11.589 7.67805 11.5492 7.82613 11.5492ZM5.24019 4.76693C5.24019 4.76693 5.24019 4.76765 5.23947 4.76824L5.24019 4.76693ZM10.4108 4.76502L10.4115 4.76633C10.4115 4.76562 10.4115 4.76562 10.4108 4.76502Z" fill="black" fill-opacity="0.3"/>
</svg>
