<svg width="15" height="10" viewBox="0 0 15 10" fill="none" xmlns="http://www.w3.org/2000/svg">
<path d="M4.90363 5.07454L-1.28746e-05 8.17454V1.84363L4.90363 5.07454Z" fill="#D5444C"/>
<path d="M14.5455 1.84363V8.17454L9.64183 5.07454L14.5455 1.84363Z" fill="#D5444C"/>
<path d="M0.909091 0H13.6364C14.09 0 14.45 0.338182 14.5182 0.773637L7.27273 5.54728L0.0272722 0.773637C0.0954533 0.338182 0.455454 0 0.909091 0Z" fill="#D5444C"/>
<path d="M5.73635 5.62359L7.02272 6.47086C7.09908 6.52086 7.18545 6.54541 7.27272 6.54541C7.35999 6.54541 7.44635 6.52086 7.52272 6.47086L8.80908 5.62268L14.5164 9.23268C14.4464 9.6645 14.0882 9.99996 13.6364 9.99996H0.90908C0.457261 9.99996 0.0990791 9.6645 0.0290785 9.23268L5.73635 5.62359Z" fill="#D5444C"/>
</svg>
